# xmcd CD database file
#
# Track frame offsets:
#	182
#	17797
#	32852
#	50377
#	78472
#	101552
#	120982
#	137742
#	151802
#	169372
#	185457
#	196647
#	223182
#	247155
#
# Disc length: 3546 seconds
#
# Revision: 2
# Processed by: cddbd v1.5.1PL0 Copyright (c) Steve Scherf et al.
# Submitted via: CDex 1.51
#
DISCID=bd0dd80e
DTITLE=Christian Maucery - Bons Baisers D'Adelaide
DYEAR=1900
DGENRE=Blues
TTITLE0=The Third Man Theme
TTITLE1=St James Infirmary
TTITLE2=Two-step Swing Thing
TTITLE3=Stanmore
TTITLE4=Ambidextrous March
TTITLE5=The Gift Of The Magi
TTITLE6=St James Infirmary (2)
TTITLE7=Crossroad Blues
TTITLE8=The Third Man Theme (2)
TTITLE9=Hey Mama
TTITLE10=Rainy Day Blues
TTITLE11=Two-step Swing Thing (2)
TTITLE12=Feeling Bad Blues
TTITLE13=Hawaiiian Swing
EXTD=
EXTT0=
EXTT1=
EXTT2=
EXTT3=
EXTT4=
EXTT5=
EXTT6=
EXTT7=
EXTT8=
EXTT9=
EXTT10=
EXTT11=
EXTT12=
EXTT13=
PLAYORDER=
